<svg width="13" height="13" viewBox="0 0 13 13" fill="none" xmlns="http://www.w3.org/2000/svg">
<path d="M13 10.6145C13 10.8485 12.9479 11.089 12.8373 11.323C12.7266 11.557 12.5834 11.778 12.3946 11.986C12.0756 12.337 11.7241 12.5905 11.327 12.753C10.9364 12.9155 10.5133 13 10.0576 13C9.39359 13 8.68403 12.844 7.9354 12.5255C7.18678 12.207 6.43816 11.778 5.69604 11.2385C4.94742 10.6925 4.23786 10.088 3.56084 9.4185C2.89034 8.7425 2.28493 8.034 1.74462 7.293C1.21082 6.552 0.781172 5.811 0.468703 5.0765C0.156234 4.3355 0 3.627 0 2.951C0 2.509 0.0781171 2.0865 0.234351 1.6965C0.390586 1.3 0.637957 0.936 0.982974 0.611C1.3996 0.2015 1.85528 0 2.33701 0C2.51928 0 2.70155 0.039 2.8643 0.117C3.03355 0.195 3.18327 0.312 3.30045 0.481L4.81072 2.6065C4.92789 2.769 5.01252 2.9185 5.07111 3.0615C5.12969 3.198 5.16224 3.3345 5.16224 3.458C5.16224 3.614 5.11668 3.77 5.02554 3.9195C4.94091 4.069 4.81723 4.225 4.66099 4.381L4.16625 4.8945C4.09464 4.966 4.06209 5.0505 4.06209 5.1545C4.06209 5.2065 4.0686 5.252 4.08162 5.304C4.10115 5.356 4.12068 5.395 4.1337 5.434C4.25088 5.6485 4.45268 5.928 4.73911 6.266C5.03205 6.604 5.34452 6.9485 5.68302 7.293C6.03455 7.6375 6.37306 7.956 6.71808 8.2485C7.05658 8.5345 7.3365 8.7295 7.55784 8.8465C7.59039 8.8595 7.62944 8.879 7.67501 8.8985C7.72709 8.918 7.77917 8.9245 7.83776 8.9245C7.94842 8.9245 8.03305 8.8855 8.10466 8.814L8.5994 8.3265C8.76214 8.164 8.91838 8.0405 9.0681 7.9625C9.21783 7.8715 9.36755 7.826 9.5303 7.826C9.65398 7.826 9.78418 7.852 9.92739 7.9105C10.0706 7.969 10.2203 8.0535 10.3831 8.164L12.5378 9.6915C12.7071 9.8085 12.8242 9.945 12.8958 10.1075C12.9609 10.27 13 10.4325 13 10.6145Z" fill="#7868E6"/>
</svg>
