<svg width="800" height="800" viewBox="0 0 800 800" fill="none" xmlns="http://www.w3.org/2000/svg">
<path d="M400 591.667C413.807 591.667 425 580.473 425 566.667V366.667C425 352.86 413.807 341.667 400 341.667C386.193 341.667 375 352.86 375 366.667V566.667C375 580.473 386.193 591.667 400 591.667Z" fill="#7A7A7A"/>
<path d="M400 233.333C418.41 233.333 433.333 248.257 433.333 266.667C433.333 285.076 418.41 300 400 300C381.59 300 366.667 285.076 366.667 266.667C366.667 248.257 381.59 233.333 400 233.333Z" fill="#7A7A7A"/>
<path fill-rule="evenodd" clip-rule="evenodd" d="M41.6667 400C41.6667 202.098 202.098 41.6667 400 41.6667C597.903 41.6667 758.333 202.098 758.333 400C758.333 597.903 597.903 758.333 400 758.333C202.098 758.333 41.6667 597.903 41.6667 400ZM400 91.6667C229.712 91.6667 91.6667 229.712 91.6667 400C91.6667 570.287 229.712 708.333 400 708.333C570.287 708.333 708.333 570.287 708.333 400C708.333 229.712 570.287 91.6667 400 91.6667Z" fill="#7A7A7A"/>
</svg>
