<svg width="130" height="47" viewBox="0 0 130 47" fill="none" xmlns="http://www.w3.org/2000/svg">
<path fill-rule="evenodd" clip-rule="evenodd" d="M7.65887 18.3542C7.90319 18.3542 8.08642 18.568 8.08642 18.8123C8.08642 19.0566 7.87265 19.2398 7.62833 19.2398C7.38402 19.2398 7.20078 19.0261 7.20078 18.7818C7.20078 18.5374 7.41455 18.3542 7.65887 18.3542ZM6.34567 20.0339C2.83363 20.3393 -1.59459 18.568 0.573711 18.232L27.0209 15.6973C26.2269 18.232 24.5472 20.0949 22.44 20.0644L17.1872 20.6447C16.3626 20.8279 15.7824 20.6752 15.2632 20.2782L14.2554 19.1788L11.4152 19.3925L26.746 31.2419C28.3341 33.0437 19.6914 33.0742 14.683 28.1268L6.34567 20.0339Z" fill="url(#paint0_linear_0_173)"/>
<path d="M1.61182 14.2619L1.6729 0H15.7211C19.2636 0 21.8289 0.305395 23.417 0.946724C25.0356 1.58805 26.2877 2.71801 27.265 4.33661C28.2117 5.9552 28.7003 7.81811 28.7003 9.92533C28.7003 10.5361 28.6393 11.1164 28.5782 11.6966L21.493 12.3074C21.7068 11.7272 21.7984 11.0553 21.7984 10.3834C21.7984 8.1235 20.699 6.50491 18.4085 6.1079C17.8588 6.01628 16.2402 5.98574 13.5222 5.98574H8.29996L8.26942 13.6206L1.61182 14.2619Z" fill="url(#paint1_linear_0_173)"/>
<path d="M121.51 32.7384H125.755V13.9566H130V9.83378H117.265V13.9566H121.51V32.7384ZM104.072 29.1653C99.6438 29.1653 96.2844 25.6227 96.2844 21.3166C96.2844 17.0411 99.6132 13.5596 104.103 13.5596C108.592 13.5596 111.921 17.0716 111.921 21.3166C111.951 25.5922 108.622 29.1653 104.072 29.1653ZM104.103 9.43677C97.2617 9.43677 92.0394 14.7812 92.0394 21.4082C92.0394 28.0353 97.2922 33.2881 104.103 33.2881C110.913 33.2881 116.166 28.0353 116.166 21.4082C116.196 14.7812 110.943 9.43677 104.103 9.43677ZM78.0829 29.1653C73.6547 29.1653 70.2953 25.6227 70.2953 21.3166C70.2953 17.0411 73.6241 13.5596 78.1134 13.5596C82.6027 13.5596 85.9315 17.0716 85.9315 21.3166C85.9315 25.5922 82.6333 29.1653 78.0829 29.1653ZM78.1134 9.43677C71.2726 9.43677 66.0503 14.7812 66.0503 21.4082C66.0503 28.0353 71.3031 33.2881 78.1134 33.2881C84.9237 33.2881 90.1765 28.0353 90.1765 21.4082C90.1765 14.7812 84.9543 9.43677 78.1134 9.43677ZM53.4986 18.6597V13.9566H55.4837C56.3999 13.9566 58.4766 14.0788 58.4766 16.3081C58.4766 16.8884 58.2628 18.6597 55.4837 18.6597H53.4986ZM53.4986 28.6156V22.7825H56.2472C59.5454 22.7825 59.8814 24.8897 59.8814 25.7448C59.8814 28.585 56.7663 28.6156 56.2472 28.6156H53.4986ZM49.2536 32.7384H54.9951C62.3245 32.7384 64.1264 29.0737 64.1264 25.7754C64.1264 23.2101 62.691 21.0723 60.2173 20.2477C60.8281 19.9118 62.7215 18.7208 62.7215 15.8806C62.7215 13.4374 61.6527 12.0021 60.2784 11.147L49.2536 12.674V32.7384ZM33.1593 32.7384H45.4362V28.6156H37.3738V23.3628H45.0697V19.2399H37.3738V14.2315L33.1288 14.8117V32.7384H33.1593Z" fill="white"/>
<path d="M34.1671 42.3277V40.0983H35.1443C35.633 40.0983 36.6713 40.1289 36.6713 41.1978C36.6713 42.2056 35.6941 42.2972 35.1443 42.2972H34.1671V42.3277ZM34.1671 45.4733V42.908H35.297C35.9384 42.908 37.0073 43.0301 37.0073 44.2212C37.0073 45.3511 35.9078 45.4733 35.297 45.4733H34.1671ZM33.5258 46.0841H35.3276C37.4653 46.0841 37.7097 44.7403 37.7097 44.2212C37.7097 43.5493 37.3737 42.7858 36.5797 42.5415C36.9156 42.3277 37.3737 41.9307 37.3737 41.2283C37.3737 39.5792 35.8773 39.4875 35.2054 39.4875H33.5563V46.0841H33.5258Z" fill="white"/>
<path d="M44.0924 43.2744L45.3751 40.2816L46.6272 43.2744H44.0924ZM42.1685 46.0841H42.8709L43.8176 43.8852H46.8715L47.8183 46.0841H48.5207L45.711 39.5181H44.9781L42.1685 46.0841Z" fill="white"/>
<path d="M53.4375 46.0841H54.0788V40.0983H55.2699C56.8274 40.0983 57.2244 40.8923 57.2244 41.5948C57.2244 43.0912 55.6363 43.0912 55.2699 43.0912H54.7507L56.9801 46.0535H57.8046L55.9723 43.6104C57.1328 43.5187 57.8963 42.6942 57.8963 41.6558C57.8963 41.1061 57.7436 39.5181 55.3004 39.5181H53.468V46.0841H53.4375Z" fill="white"/>
<path d="M63.6072 42.3277V40.0983H64.5845C65.0731 40.0983 66.1114 40.1289 66.1114 41.1978C66.1114 42.2056 65.1342 42.2972 64.5845 42.2972H63.6072V42.3277ZM63.6072 45.4733V42.908H64.7372C65.3785 42.908 66.4474 43.0301 66.4474 44.2212C66.4474 45.3511 65.348 45.4733 64.7372 45.4733H63.6072ZM62.9659 46.0841H64.7677C66.9055 46.0841 67.1498 44.7403 67.1498 44.2212C67.1498 43.5493 66.8139 42.7858 66.0198 42.5415C66.3558 42.3277 66.8139 41.9307 66.8139 41.2283C66.8139 39.5792 65.3174 39.4875 64.6456 39.4875H62.9964V46.0841H62.9659Z" fill="white"/>
<path d="M72.1887 46.0841H75.7924V45.4733H72.8301V43.0606H75.7008V42.4804H72.8301V40.0983H75.7924V39.5181H72.1887V46.0841Z" fill="white"/>
<path d="M81.0757 46.0841H81.7171V40.0983H82.9081C84.4656 40.0983 84.8626 40.8923 84.8626 41.5948C84.8626 43.0912 83.2746 43.0912 82.9081 43.0912H82.3889L84.6183 46.0535H85.4429L83.6105 43.6104C84.771 43.5187 85.5345 42.6942 85.5345 41.6558C85.5345 41.1061 85.3818 39.5181 82.9387 39.5181H81.1063V46.0841H81.0757Z" fill="white"/>
<path d="M90.146 44.2517C90.146 45.3817 91.0316 46.2063 92.1921 46.2063C93.5359 46.2063 94.1772 45.1679 94.1772 44.2823C94.1772 42.8775 93.0167 42.5415 92.3143 42.3583C91.4897 42.114 91.0316 41.9307 91.0316 41.1978C91.0316 40.6175 91.337 40.0068 92.1616 40.0068C93.1694 40.0068 93.3832 40.7702 93.3832 41.1978H94.0245C93.994 40.3427 93.4443 39.4265 92.2227 39.4265C90.8789 39.4265 90.3598 40.4649 90.3598 41.1978C90.3598 42.6942 91.7951 42.7553 92.6502 43.0913C92.9251 43.1829 93.5359 43.4883 93.5359 44.2823C93.5359 44.9847 93.0472 45.626 92.1921 45.626C90.9706 45.626 90.8484 44.5266 90.8484 44.2823H90.146V44.2517Z" fill="white"/>
<path d="M99.1552 46.0841H99.7965V42.9996H103.247V46.0841H103.889V39.5181H103.247V42.4193H99.7965V39.5181H99.1552V46.0841Z" fill="white"/>
<path d="M112.562 45.5955C110.974 45.5955 109.722 44.4655 109.722 42.8164C109.722 41.1978 110.943 40.0068 112.562 40.0068C114.15 40.0068 115.372 41.1367 115.372 42.7859C115.372 44.4045 114.15 45.5955 112.562 45.5955ZM112.531 39.396C110.577 39.396 109.05 40.8314 109.05 42.8164C109.05 44.7709 110.607 46.2063 112.531 46.2063C114.486 46.2063 116.013 44.7404 116.013 42.7859C116.013 40.8008 114.486 39.396 112.531 39.396Z" fill="white"/>
<path d="M121.846 40.0983H123.281C124.442 40.0983 124.869 40.7702 124.869 41.4726C124.869 42.1444 124.442 42.8468 123.281 42.8468H121.846V40.0983ZM121.174 46.084H121.815V43.4576H123.22C124.869 43.4576 125.48 42.4804 125.48 41.5031C125.48 40.7702 125.144 39.5486 123.22 39.5486H121.144V46.084H121.174Z" fill="white"/>
<defs>
<linearGradient id="paint0_linear_0_173" x1="6.1828" y1="15.6685" x2="25.2498" y2="32.6855" gradientUnits="userSpaceOnUse">
<stop stop-color="#D3B095"/>
<stop offset="0.494792" stop-color="#E4C3AD"/>
<stop offset="1" stop-color="#F3B88E"/>
</linearGradient>
<linearGradient id="paint1_linear_0_173" x1="7.81009" y1="-0.0246646" x2="24.227" y2="17.1289" gradientUnits="userSpaceOnUse">
<stop stop-color="#D3B095"/>
<stop offset="0.494792" stop-color="#E4C3AD"/>
<stop offset="1" stop-color="#F3B88E"/>
</linearGradient>
</defs>
</svg>
